HIERARCHY
ROOT Hips
{
  OFFSET 265.287 66.7526 -254.649
  CHANNELS 6 Xposition Yposition Zposition Zrotation Xrotation Yrotation
  JOINT LeftUpLeg
  {
    OFFSET 8.64259 1.95398 -2.38835
    CHANNELS 3 Zrotation Xrotation Yrotation
    JOINT LeftLeg
    {
      OFFSET 43.7702 0 0
      CHANNELS 3 Zrotation Xrotation Yrotation
      JOINT LeftFoot
      {
        OFFSET 40.6238 0 0
        CHANNELS 3 Zrotation Xrotation Yrotation
        JOINT LeftToeBase
        {
          OFFSET 12.7242 0 0
          CHANNELS 3 Zrotation Xrotation Yrotation
          End Site
          {
            OFFSET 0 0 0
          }
        }
      }
    }
  }
  JOINT RightUpLeg
  {
    OFFSET -8.2249 1.95398 -2.59336
    CHANNELS 3 Zrotation Xrotation Yrotation
    JOINT RightLeg
    {
      OFFSET 43.5653 0 0
      CHANNELS 3 Zrotation Xrotation Yrotation
      JOINT RightFoot
      {
        OFFSET 40.6238 0 0
        CHANNELS 3 Zrotation Xrotation Yrotation
        JOINT RightToeBase
        {
          OFFSET 12.7242 0 0
          CHANNELS 3 Zrotation Xrotation Yrotation
          End Site
          {
            OFFSET 0 0 0
          }
        }
      }
    }
  }
  JOINT Spine
  {
    OFFSET 0.165834 0.87714 6.61349
    CHANNELS 3 Zrotation Xrotation Yrotation
    JOINT Spine1
    {
      OFFSET 7.38963 1.71661e-005 0
      CHANNELS 3 Zrotation Xrotation Yrotation
      JOINT Spine2
      {
        OFFSET 11.9445 1.14441e-005 0
        CHANNELS 3 Zrotation Xrotation Yrotation
        JOINT Spine3
        {
          OFFSET 14.7254 4.19617e-005 0
          CHANNELS 3 Zrotation Xrotation Yrotation
          JOINT Spine4
          {
            OFFSET 10.9679 0 0
            CHANNELS 3 Zrotation Xrotation Yrotation
            JOINT RightShoulder
            {
              OFFSET 2.46616 -1.6653 3.69651
              CHANNELS 3 Zrotation Xrotation Yrotation
              JOINT RightArm
              {
                OFFSET 13.0012 0 0
                CHANNELS 3 Zrotation Xrotation Yrotation
                JOINT RightForeArm
                {
                  OFFSET 28.7848 1.52588e-005 0
                  CHANNELS 3 Zrotation Xrotation Yrotation
                  JOINT RightHand
                  {
                    OFFSET 26.5688 1.52588e-005 0
                    CHANNELS 3 Zrotation Xrotation Yrotation
                    End Site
                    {
                      OFFSET 0 0 0
                    }
                  }
                }
              }
            }
            JOINT LeftShoulder
            {
              OFFSET 2.38034 -1.29275 -3.7523
              CHANNELS 3 Zrotation Xrotation Yrotation
              JOINT LeftArm
              {
                OFFSET 16.3182 6.10351e-005 0
                CHANNELS 3 Zrotation Xrotation Yrotation
                JOINT LeftForeArm
                {
                  OFFSET 27.0901 0 0
                  CHANNELS 3 Zrotation Xrotation Yrotation
                  JOINT LeftHand
                  {
                    OFFSET 24.5451 1.52588e-005 0
                    CHANNELS 3 Zrotation Xrotation Yrotation
                    End Site
                    {
                      OFFSET 0 0 0
                    }
                  }
                }
              }
            }
            JOINT Neck
            {
              OFFSET 5.0226 -0.0266342 0
              CHANNELS 3 Zrotation Xrotation Yrotation
              JOINT Head
              {
                OFFSET 6.69364 2.86102e-005 0
                CHANNELS 3 Zrotation Xrotation Yrotation
                End Site
                {
                  OFFSET 0 0 0
                }
              }
            }
          }
        }
      }
    }
  }
}
MOTION
Frames:	12
Frame Time:	0.0416667
-10.3825 72.7877 44.5794 102.417 -14.9685 79.6929 179.775 33.224 105.817 -53.5872 24.6394 6.53792 49.5849 -2.78224 -1.64779 61.0093 -7.7266 11.8146 175.353 47.2389 91.0757 -99.0549 -19.6759 -3.459 59.7811 -2.35651 -4.91128 40.8234 -1.82112 11.4159 -0.176349 10.596 -89.2309 5.67899 -0.0305954 1.50908 -5.99284 0.0358426 1.50895 -28.5214 -0.482689 1.43014 -8.50874 -0.482673 1.43015 100.487 -49.0372 -84.8125 19.135 -14.8227 -10.9064 -16.7095 -1.05361 -74.6279 -8.35997 0.0797728 -6.64779 -87.4769 -42.131 80.8209 0.373321 -1.074 -24.5351 5.77206 2.73999 -21.368 10.2469 -0.384274 -6.91778 -5.69313 -17.7877 -5.43544 5.58721 -19.0437 -25.258 
-5.63897 73.5565 39.0267 98.8771 -21.462 79.3463 -177.16 34.5315 105.332 -61.4281 25.9031 4.34341 62.3241 1.97581 2.12616 57.9428 -7.06494 12.0883 165.838 51.5361 94.0119 -97.6046 -18.5389 -2.08985 62.4241 -1.7336 5.06142 39.4613 -1.68411 7.39019 -0.394493 11.5342 -88.908 3.80365 -0.3496 2.13808 -7.86902 -0.255189 2.15138 -30.3925 -0.97591 1.9343 -10.3799 -0.975905 1.93429 100.455 -51.3517 -84.7898 21.8318 -12.6391 -16.1254 -21.4237 2.47255 -87.212 -9.1073 0.0630998 -6.31118 -90.0005 -41.8997 76.611 2.05895 -5.01509 -37.0036 3.05504 3.20254 -3.98865 12.1684 -0.299567 -6.00822 4.92589 -16.8222 -7.52353 7.4811 -17.0841 -21.2041 
-2.24481 75.0301 35.9541 90.1889 -20.0485 76.3488 -178.05 39.2222 102.228 -60.4965 25.5819 3.64962 68.5689 5.37022 6.19212 56.2718 -6.72951 12.1147 142.319 56.0819 109.826 -88.5196 -18.6479 2.36453 63.097 -2.86051 -0.297142 47.6909 -2.22265 9.6203 -0.673797 11.676 -88.9588 3.52521 -0.930528 2.03345 -8.14707 -0.84013 2.07241 -30.6756 -1.49857 1.65993 -10.663 -1.49856 1.65993 100.145 -55.2522 -85.1246 21.6193 -10.5202 -13.142 -15.9353 0.530783 -81.5515 -16.0712 -0.211851 -3.73129 -92.2004 -41.7973 72.9826 -3.08675 -6.70849 -57.7865 3.5934 5.19316 -1.1902 11.3312 -0.258858 -5.76337 11.6266 -17.1088 -7.0975 9.29279 -17.1508 -20.1091 
1.9374 77.5503 35.3408 86.1461 -18.542 72.0666 -178.168 37.5889 96.4976 -56.1947 23.4283 3.12418 68.8432 5.80877 7.25568 57.2631 -7.03302 11.4304 140.409 57.3979 109.376 -80.8017 -13.9669 4.80164 64.9048 -3.62001 0.0438376 47.9878 -2.12093 11.192 -1.0409 12.0454 -89.0552 2.79323 -1.70796 1.82636 -8.878 -1.62592 1.89973 -31.4168 -2.17785 1.2286 -11.4041 -2.17783 1.2286 99.0477 -57.0966 -86.6296 19.8695 -10.4307 -9.66445 -4.95465 -2.19824 -64.3848 -24.3118 -0.847753 -1.22876 -93.6104 -40.0483 70.0997 -9.17983 -1.58096 -72.761 10.3309 14.2319 -19.5173 9.56722 -0.358941 -6.95985 18.1922 -17.1015 -1.69157 9.79266 -18.3514 -20.7838 
8.16515 79.8452 37.6947 81.3835 -22.6147 67.5023 -174.135 30.4826 94.317 -48.0563 23.7895 1.45397 70.5031 6.03826 5.89408 59.2802 -7.30632 12.2729 149.584 56.3925 102.888 -74.9358 -10.4552 4.87661 60.2565 -0.17858 2.83774 39.9242 -1.72111 10.7845 -1.11849 11.717 -89.1573 3.44963 -1.89846 1.641 -8.22106 -1.8244 1.72296 -30.7638 -2.30384 0.994439 -10.7511 -2.30383 0.994456 97.2639 -56.0878 -89.2648 22.6807 -13.8116 -1.31004 0.129468 -0.533351 -52.2248 -23.1715 -0.607718 -2.23782 -92.3946 -40.1231 72.1565 -7.1597 5.67261 -71.7164 15.7692 9.0972 -43.9241 12.4124 -0.563534 -8.03105 19.1933 -15.9476 3.64945 8.55222 -18.5338 -20.6506 
15.7587 80.8212 43.5272 75.2647 -32.4674 64.0466 -178.065 27.5114 97.4012 -53.5642 19.3949 3.81705 57.6001 -0.728593 -8.3445 70.5084 -8.88793 14.7359 157.263 46.3431 100.129 -69.6638 -14.4272 6.27436 67.7946 -5.0454 -0.628716 34.1032 -1.76578 15.0256 -0.703956 11.0346 -89.3359 4.80915 -1.13412 1.31876 -6.86202 -1.07498 1.36739 -29.3982 -1.47801 0.916956 -9.38554 -1.47802 0.916948 95.8209 -55.493 -91.4116 27.5009 -18.861 3.0555 15.6068 15.5827 -44.2509 -18.219 -0.179066 -4.11077 -91.4271 -45.4751 75.2372 -11.6921 9.60649 -51.7313 13.4047 8.54547 -38.8024 12.9295 -0.58565 -8.05441 17.2072 -13.8159 2.5376 7.40117 -15.576 -16.4222 
22.7066 80.6963 50.7549 71.6032 -45.9982 61.0515 170.939 33.0121 97.4505 -79.4582 16.9208 4.51626 52.1352 -0.905736 7.89267 57.17 -7.47926 8.59102 164.473 35.7063 97.7797 -69.0019 -16.1826 4.83878 66.3798 -2.58729 3.20802 39.5494 -1.82436 14.7431 -0.248408 11.1342 -89.5914 4.60521 -0.329287 0.804969 -7.066 -0.293572 0.818649 -29.5993 -0.555989 0.66879 -9.58663 -0.555994 0.668776 96.1463 -55.7582 -90.9113 24.9124 -15.2475 -6.82157 13.3367 14.4096 -41.6497 -18.0345 -0.0664516 -4.83127 -89.9066 -53.5387 79.3604 -12.2673 5.52387 -26.5535 8.80994 15.1018 -18.9148 14.4932 -0.0498877 -4.15007 22.7369 -9.53738 7.13404 3.55845 -12.2954 -13.2238 
28.7197 80.2558 57.8743 58.7919 -61.5837 52.2071 169.294 48.7797 99.1537 -95.2397 12.2834 2.20738 62.6617 5.5643 17.0823 50.6226 -5.97592 8.18701 174.647 24.8069 97.8486 -65.7096 -20.7698 0.754333 69.7417 -4.2105 4.35853 40.697 -1.83645 14.754 0.561282 11.1785 -89.7516 4.51119 1.22254 0.475446 -7.15924 1.24229 0.42116 -29.6971 1.02316 0.820917 -9.6845 1.02315 0.820905 97.2042 -51.9972 -89.715 23.767 -10.3892 -26.6504 10.9688 10.3946 -53.1974 -16.8934 0.00662363 -5.41554 -89.1666 -55.6615 80.8114 -15.3639 7.68116 3.07544 2.94618 12.1665 -9.77318 13.9864 0.300915 -1.676 28.5305 -4.94868 9.20748 2.40091 -8.71631 -8.682 
32.9972 82.7378 67.7738 38.9638 -66.4566 27.8757 -170.467 62.3243 83.029 -81.2368 17.6936 -0.406275 63.3529 4.02211 12.1803 55.9182 -7.25374 7.75702 179.288 11.7789 88.602 -50.4646 -25.6912 -4.8193 71.6601 -5.61278 2.5046 43.4877 -1.98674 14.5216 0.857122 10.9072 -88.9951 5.04517 2.12751 1.93356 -6.62522 2.21053 1.83804 -29.1573 1.44819 2.48338 -9.14463 1.44819 2.48336 98.6762 -42.2135 -88.158 22.8185 -5.87507 -46.4929 -1.03443 1.8372 -75.6991 -15.2277 0.118383 -6.22166 -91.4844 -51.8414 76.6932 -23.7258 15.8236 18.3214 -0.569703 12.3026 -10.9973 14.1385 0.0626438 -3.26065 31.5668 -4.16613 7.4424 1.26973 -7.18972 -5.46777 
37.2638 83.3676 83.1779 37.7353 -62.7372 24.9263 -157.228 58.7098 71.7096 -69.0363 19.0044 -4.40105 58.0145 0.183692 5.86365 61.6077 -9.14857 5.05437 -179.983 -1.67799 87.8187 -27.0888 -23.6812 -4.76917 31.4279 11.71 28.1855 20.1138 -0.00913568 6.67247 0.568259 10.0139 -88.7088 6.82096 1.68707 2.47546 -4.85112 1.79435 2.39884 -27.3703 0.865441 2.86774 -7.35773 0.865446 2.86775 99.3492 -41.4911 -87.0622 16.272 -11.8806 -43.1075 -7.19476 3.12118 -85.9472 -12.3499 0.0716227 -6.0552 -91.7709 -53.2099 76.5979 -11.7279 20.0193 2.02166 -4.46263 17.1416 -5.96057 12.567 -0.124989 -4.63278 21.2374 -6.06771 0.862364 3.13148 -6.1545 -0.89038 
40.3192 82.4728 100.008 44.1125 -63.7041 34.1756 -168.816 39.7508 82.7905 -64.2214 22.1966 -2.88617 72.0098 7.91158 12.0765 57.3474 -7.62113 7.49886 178.183 12.035 94.8516 -73.0773 -17.7191 -2.69054 35.2965 12.0209 13.7024 6.32266 4.98642 -5.18392 0.327994 10.0151 -89.0633 6.8316 1.05514 1.80637 -4.84012 1.13361 1.7582 -27.3652 0.463608 2.03985 -7.35251 0.463618 2.03987 98.5317 -48.379 -87.9526 19.0101 -19.4506 -21.2809 -13.5931 -2.19791 -67.6967 -8.62136 0.021203 -6.43568 -90.2023 -53.9809 79.0146 7.55541 12.3862 -27.6231 -2.69637 12.3835 -10.5402 14.8121 -0.0871971 -4.35868 21.856 -5.51207 -0.281691 0.414486 -5.29769 -2.23283 
41.701 81.855 115.573 59.9883 -58.5271 43.189 -177.184 22.9833 80.5642 -54.2675 27.8569 0.240084 70.232 7.2109 13.6813 65.6866 -9.00656 10.352 174.02 42.7706 90.4234 -112.487 -14.6306 -3.88161 45.1676 6.91053 10.5413 18.0493 3.16923 -6.7225 -0.826003 9.9885 -88.678 6.89861 -1.08408 2.66037 -4.77481 -0.965995 2.70544 -27.2971 -1.83337 2.21189 -7.28443 -1.83337 2.21189 99.8997 -54.0826 -85.514 27.4051 -11.9278 7.62697 -16.9238 -19.591 -48.5426 -10.7818 -0.313281 -1.62712 -88.5581 -46.1375 79.8752 10.0442 -8.03276 -54.7775 7.28953 10.2413 -23.8832 17.1657 -0.441489 -6.32926 22.5819 -4.89996 3.9725 0.281168 -6.2407 -7.22919 
